# xmcd CD database file
#
# Track frame offsets:
#	150
#	20629
#	41770
#	58581
#	74938
#	90303
#	108399
#	131470
#	144584
#	163468
#	181755
#	203997
#	215620
#	234475
#	251014
#	275043
#	306407
#	321373
#
# Disc length: 4514 seconds
#
# Revision: 2
# Processed by: cddbd v1.5.2PL0 Copyright (c) Steve Scherf et al.
# Submitted via: CDex 1.78
#
DISCID=1e11a012
DTITLE=Willie Nelson - Farther Along
DYEAR=2003
DGENRE=Gospel
TTITLE0=HAVE A LITTLE TALK WITH JESUS
TTITLE1=I'D RATHER HAVE JESUS
TTITLE2=WHERE THE SOUL OF MAN
TTITLE3=LILY OF THE VALLEY
TTITLE4=I'LL FLY AWAY
TTITLE5=BLOOD OF THE LAMB
TTITLE6=WHERE HE LEADS ME
TTITLE7=OLD TIME RELIGION
TTITLE8=THINE THE GLORY
TTITLE9=IN THE SWEET BY and BY
TTITLE10=WHEN WE ALL GET TO HEAVEN
TTITLE11=KNEEL AT THE FEET
TTITLE12=SWING LOW SWEET CHARIOT
TTITLE13=JUST AS I AM
TTITLE14=FARTHER ALONG
TTITLE15=JUST A CLOSER WALK
TTITLE16=WHAT A FRIEND WE HAVE
TTITLE17=HOW GREAT THOU ART
EXTD=YEAR: 2003
EXTT0=
EXTT1=
EXTT2=
EXTT3=
EXTT4=
EXTT5=
EXTT6=
EXTT7=
EXTT8=
EXTT9=
EXTT10=
EXTT11=
EXTT12=
EXTT13=
EXTT14=
EXTT15=
EXTT16=
EXTT17=
PLAYORDER=
